<svg width="360" height="115" viewBox="0 0 360 115" fill="none" xmlns="http://www.w3.org/2000/svg">
<path d="M220.462 52.1136C219.62 52.1136 218.909 52.4122 218.328 53.0095C217.746 53.6068 217.457 54.318 217.457 55.143C217.457 56.0091 217.746 56.7407 218.328 57.3399C218.909 57.9372 219.62 58.2358 220.462 58.2358C221.264 58.2358 221.956 57.9372 222.536 57.3399C223.117 56.7407 223.409 56.0091 223.409 55.143C223.409 54.318 223.117 53.6068 222.536 53.0095C221.956 52.4122 221.264 52.1136 220.462 52.1136Z" fill="#5660FF"/>
<path d="M139.995 112.655C137.571 111.276 135.901 109.473 134.986 107.244C134.834 106.869 134.758 106.555 134.758 106.303C134.758 105.833 134.925 105.418 135.26 105.056C135.596 104.696 136.054 104.453 136.632 104.328C136.725 104.297 136.877 104.282 137.09 104.282C137.578 104.282 138.042 104.431 138.485 104.728C138.928 105.026 139.255 105.426 139.469 105.928C140.019 107.151 141.1 108.186 142.717 109.032C144.332 109.879 146.116 110.303 148.069 110.303C150.355 110.303 152.291 109.762 153.877 108.679C155.462 107.599 156.255 106.116 156.255 104.233C156.255 102.445 155.585 100.916 154.242 99.647C152.901 98.3759 150.858 97.5994 148.114 97.3176C144.332 96.9405 141.36 95.8057 139.195 93.9074C137.028 92.0091 135.946 89.633 135.946 86.7791C135.946 84.7725 136.504 83.0385 137.616 81.5807C138.728 80.123 140.253 79.0086 142.191 78.2396C144.127 77.4725 146.299 77.088 148.709 77.088C151.331 77.088 153.542 77.6367 155.34 78.7343C157.14 79.8318 158.665 81.3997 159.915 83.4398C160.282 84.0352 160.463 84.5989 160.463 85.1328C160.463 85.8234 160.158 86.3871 159.548 86.8257C159.213 87.046 158.817 87.1561 158.36 87.1561C157.902 87.1561 157.474 87.0385 157.079 86.8033C156.683 86.5681 156.376 86.2471 156.164 85.8383C155.34 84.4272 154.311 83.354 153.077 82.6148C151.841 81.8794 150.279 81.5098 148.388 81.5098C146.071 81.5098 144.194 81.9727 142.762 82.8985C141.329 83.8243 140.612 85.1645 140.612 86.9209C140.612 88.5523 141.253 89.9167 142.534 91.0143C143.815 92.1118 146.101 92.8323 149.395 93.1776C153.054 93.5546 155.89 94.6913 157.902 96.5878C159.915 98.486 160.92 100.987 160.92 104.093C160.92 106.35 160.327 108.287 159.136 109.904C157.948 111.518 156.369 112.726 154.404 113.525C152.437 114.326 150.324 114.725 148.069 114.725C145.111 114.725 142.419 114.036 139.995 112.655Z" fill="#5660FF"/>
<path d="M168.88 113.549C168.423 113.079 168.194 112.498 168.194 111.808V79.9571C168.194 79.2366 168.423 78.6487 168.88 78.1932C169.338 77.7397 169.902 77.5119 170.573 77.5119C171.274 77.5119 171.846 77.7397 172.288 78.1932C172.729 78.6487 172.951 79.2366 172.951 79.9571V93.4597H194.174V79.9571C194.174 79.2366 194.402 78.6487 194.861 78.1932C195.319 77.7397 195.881 77.5119 196.553 77.5119C197.224 77.5119 197.779 77.7397 198.222 78.1932C198.663 78.6487 198.886 79.2366 198.886 79.9571V111.808C198.886 112.53 198.663 113.118 198.222 113.574C197.779 114.027 197.224 114.255 196.553 114.255C195.881 114.255 195.319 114.02 194.861 113.549C194.402 113.079 194.174 112.498 194.174 111.808V97.7882H172.951V111.808C172.951 112.498 172.729 113.079 172.288 113.549C171.846 114.02 171.274 114.255 170.573 114.255C169.902 114.255 169.338 114.02 168.88 113.549Z" fill="#5660FF"/>
<path d="M215.237 113.338C212.965 112.225 211.195 110.68 209.93 108.703C208.666 106.728 208.032 104.47 208.032 101.929V79.9582C208.032 79.2377 208.261 78.6479 208.718 78.1943C209.175 77.7389 209.74 77.5112 210.411 77.5112C211.112 77.5112 211.683 77.7389 212.126 78.1943C212.567 78.6479 212.789 79.2377 212.789 79.9582V101.929C212.789 103.592 213.224 105.08 214.093 106.398C214.963 107.716 216.166 108.742 217.706 109.479C219.245 110.217 221.007 110.584 222.989 110.584C224.88 110.584 226.573 110.217 228.066 109.479C229.56 108.742 230.727 107.716 231.565 106.398C232.404 105.08 232.823 103.592 232.823 101.929V79.9582C232.823 79.2377 233.051 78.6479 233.509 78.1943C233.968 77.7389 234.53 77.5112 235.202 77.5112C235.871 77.5112 236.429 77.7389 236.871 78.1943C237.312 78.6479 237.534 79.2377 237.534 79.9582V101.929C237.534 104.438 236.917 106.689 235.683 108.681C234.447 110.672 232.725 112.225 230.513 113.338C228.302 114.45 225.794 115.008 222.989 115.008C220.093 115.008 217.509 114.45 215.237 113.338Z" fill="#5660FF"/>
<path d="M284.056 78.0764C284.361 78.4534 284.513 78.9555 284.513 79.5827C284.513 80.053 284.452 80.4917 284.33 80.8986L275.137 112.279C274.923 112.876 274.611 113.354 274.199 113.714C273.787 114.075 273.308 114.256 272.758 114.256C272.21 114.256 271.722 114.075 271.295 113.714C270.867 113.354 270.564 112.891 270.38 112.326L263.564 85.2271L256.658 112.279C256.444 112.876 256.131 113.354 255.72 113.714C255.309 114.075 254.829 114.256 254.279 114.256C253.731 114.256 253.242 114.084 252.816 113.739C252.388 113.393 252.085 112.923 251.901 112.326L242.706 80.8986C242.585 80.4917 242.525 80.068 242.525 79.6293C242.525 78.9705 242.699 78.4534 243.051 78.0764C243.401 77.6993 243.88 77.5127 244.492 77.5127C245.04 77.5127 245.521 77.6695 245.931 77.983C246.343 78.2966 246.641 78.7502 246.824 79.3475L254.326 106.164L261.233 79.6293C261.354 79.159 261.628 78.767 262.055 78.4534C262.481 78.1398 262.969 77.983 263.519 77.983C264.036 77.983 264.51 78.123 264.936 78.4049C265.363 78.6886 265.639 79.0806 265.76 79.5827L272.758 106.351L280.35 79.1123C280.503 78.5467 280.77 78.1398 281.153 77.8879C281.532 77.6377 282.044 77.5127 282.684 77.5127C283.294 77.5127 283.751 77.6993 284.056 78.0764Z" fill="#5660FF"/>
<path d="M290.273 113.55C289.816 113.08 289.587 112.499 289.587 111.809V79.9578C289.587 79.2374 289.816 78.6494 290.273 78.194C290.731 77.7404 291.295 77.5127 291.966 77.5127C292.667 77.5127 293.239 77.7404 293.681 78.194C294.122 78.6494 294.344 79.2374 294.344 79.9578V111.809C294.344 112.499 294.122 113.08 293.681 113.55C293.239 114.02 292.667 114.256 291.966 114.256C291.295 114.256 290.731 114.02 290.273 113.55Z" fill="#5660FF"/>
<path d="M304.179 113.549C303.722 113.079 303.493 112.498 303.493 111.808V79.9571C303.493 79.2366 303.722 78.6487 304.179 78.1932C304.636 77.7397 305.201 77.5119 305.872 77.5119H326.545C327.248 77.5119 327.81 77.7229 328.238 78.1466C328.665 78.5703 328.879 79.1265 328.879 79.8171C328.879 80.476 328.665 81.0098 328.238 81.4168C327.81 81.8237 327.248 82.029 326.545 82.029H308.249V93.4597H321.377C322.048 93.4597 322.604 93.6725 323.047 94.0962C323.489 94.518 323.711 95.0593 323.711 95.7182C323.711 96.3771 323.489 96.9184 323.047 97.3421C322.604 97.7658 322.048 97.9767 321.377 97.9767H308.249V109.738H326.545C327.248 109.738 327.81 109.943 328.238 110.35C328.665 110.759 328.879 111.291 328.879 111.95C328.879 112.64 328.665 113.197 328.238 113.62C327.81 114.044 327.248 114.255 326.545 114.255H305.872C305.201 114.255 304.636 114.02 304.179 113.549Z" fill="#5660FF"/>
<path d="M346.123 95.5771C348.195 95.5771 349.903 94.9742 351.245 93.7666C352.587 92.5589 353.258 90.9985 353.258 89.0853C353.258 87.0153 352.587 85.3204 351.245 84.0045C349.903 82.6867 348.195 82.0279 346.123 82.0279H340.268V95.5771H346.123ZM359.159 112.044C359.159 112.671 358.953 113.195 358.541 113.619C358.129 114.043 357.573 114.256 356.871 114.256C355.987 114.256 355.301 113.864 354.813 113.078L346.946 100.094H346.123H340.268V111.809C340.268 112.499 340.047 113.078 339.604 113.548C339.163 114.019 338.59 114.256 337.889 114.256C337.218 114.256 336.655 114.019 336.198 113.548C335.739 113.078 335.51 112.499 335.51 111.809V79.9579C335.51 79.2374 335.739 78.6475 336.198 78.194C336.655 77.7385 337.218 77.5108 337.889 77.5108H346.123C348.378 77.5108 350.4 77.998 352.184 78.9705C353.968 79.9429 355.354 81.3074 356.345 83.0638C357.336 84.8202 357.833 86.8267 357.833 89.0853C357.833 91.312 357.283 93.2887 356.185 95.0134C355.087 96.7381 353.594 98.0391 351.703 98.9182L358.702 110.491C359.005 110.993 359.159 111.51 359.159 112.044Z" fill="#5660FF"/>
<path d="M330.808 5.65353C331.611 5.65353 332.287 5.93911 332.841 6.50841C333.394 7.07771 333.672 7.75526 333.672 8.53921C333.672 9.36422 333.394 10.0604 332.841 10.6297C332.287 11.199 331.611 11.4846 330.808 11.4846C330.044 11.4846 329.386 11.199 328.832 10.6297C328.279 10.0604 328.003 9.36422 328.003 8.53921C328.003 7.75526 328.279 7.07771 328.832 6.50841C329.386 5.93911 330.044 5.65353 330.808 5.65353Z" fill="#5660FF"/>
<path d="M334.301 -3.91006e-05C335.065 -3.91006e-05 335.703 0.274343 336.219 0.824974C336.734 1.37374 336.992 2.0233 336.992 2.76805C336.992 3.51466 336.734 4.16236 336.219 4.71112C335.703 5.26175 335.065 5.53613 334.301 5.53613C333.575 5.53613 332.945 5.26175 332.411 4.71112C331.876 4.16236 331.609 3.51466 331.609 2.76805C331.609 2.0233 331.876 1.37374 332.411 0.824974C332.945 0.274343 333.575 -3.91006e-05 334.301 -3.91006e-05Z" fill="#5660FF"/>
<path d="M337.794 5.65353C338.558 5.65353 339.215 5.93911 339.77 6.50841C340.322 7.07771 340.6 7.75526 340.6 8.53921C340.6 9.36422 340.322 10.0604 339.77 10.6297C339.215 11.199 338.558 11.4846 337.794 11.4846C337.03 11.4846 336.372 11.199 335.818 10.6297C335.265 10.0604 334.989 9.36422 334.989 8.53921C334.989 7.75526 335.265 7.07771 335.818 6.50841C336.372 5.93911 337.03 5.65353 337.794 5.65353Z" fill="#5660FF"/>
<path d="M220.464 52.3727C219.684 52.3727 219.045 52.6415 218.508 53.194C217.971 53.7446 217.711 54.383 217.711 55.1445C217.711 55.9453 217.971 56.6042 218.508 57.1567C219.045 57.7073 219.685 57.9761 220.464 57.9761C221.203 57.9761 221.821 57.7073 222.36 57.1548C222.897 56.6023 223.159 55.9453 223.159 55.1445C223.159 54.383 222.897 53.7446 222.36 53.194C221.823 52.6415 221.203 52.3727 220.464 52.3727ZM220.464 58.495C219.557 58.495 218.778 58.1683 218.15 57.5225C217.524 56.8767 217.207 56.076 217.207 55.1445C217.207 54.2505 217.524 53.4703 218.15 52.8263C218.778 52.1823 219.557 51.8538 220.464 51.8538C221.331 51.8538 222.088 52.1823 222.718 52.8263C223.344 53.4721 223.663 54.2505 223.663 55.1445C223.663 56.076 223.344 56.8767 222.718 57.5225C222.088 58.1683 221.33 58.495 220.464 58.495Z" fill="#5660FF"/>
<path d="M227.74 58.3354C228.555 58.3354 229.244 58.0638 229.807 57.521L229.918 57.4087C230.497 56.79 230.787 56.033 230.787 55.1431C230.787 54.3989 230.564 53.7424 230.121 53.1772L229.918 52.9409C229.336 52.3231 228.609 52.0132 227.74 52.0132C226.91 52.0132 226.192 52.3241 225.594 52.9399V52.9409C224.994 53.5565 224.693 54.2921 224.693 55.1431C224.693 56.034 224.992 56.7911 225.594 57.4097C226.192 58.0255 226.91 58.3354 227.74 58.3354Z" fill="#5660FF" stroke="white" stroke-width="0.2"/>
<path d="M228.731 17.2317C227.319 17.2317 226.176 18.4076 226.176 19.8598V38.9396C226.176 39.6004 225.975 40.1361 225.574 40.5467C225.133 41.0432 224.572 41.2896 223.891 41.2896H215.774H215.353H205.071H204.65H194.368H193.947H183.667H183.246H172.964H172.543H162.261H161.84H159.194V19.8598C159.194 18.4076 158.051 17.2317 156.639 17.2317C155.227 17.2317 154.084 18.4076 154.084 19.8598V44.9387C154.084 52.3601 150.109 54.5868 142.372 55.9737C141.838 56.0707 141.308 56.235 140.802 56.4235C140.214 56.6419 139.602 57.0096 139.285 57.5957C138.931 58.2546 139.013 59.1692 139.504 59.7348C139.887 60.1753 140.521 60.347 141.069 60.431C142.519 60.655 143.97 60.431 145.415 60.2947C148.772 59.9793 151.581 58.9639 153.842 57.2448C157.288 54.6895 159.074 50.8351 159.194 45.6797H161.84H162.261H172.543H172.964H183.246H183.667H193.947H194.368H204.65H205.071H215.353H215.774H225.815C227.417 45.6797 228.762 45.0413 229.844 43.7627C230.805 42.6503 231.286 41.3306 231.286 39.8057V19.8598C231.286 18.4076 230.143 17.2317 228.731 17.2317Z" fill="#5660FF"/>
<path d="M156.641 17.4915C155.37 17.4915 154.338 18.5536 154.338 19.8602V44.939C154.338 52.6348 150.148 54.8448 142.415 56.2298C141.96 56.3138 141.459 56.4556 140.891 56.6684C140.426 56.8401 139.811 57.163 139.508 57.723C139.2 58.2942 139.279 59.0856 139.693 59.5634C139.96 59.8677 140.423 60.0693 141.109 60.1757C142.288 60.3548 143.506 60.2298 144.682 60.1085C144.92 60.0842 145.157 60.0581 145.395 60.0375C148.69 59.7277 151.483 58.7197 153.695 57.038C157.06 54.5406 158.826 50.7179 158.943 45.6745L158.951 45.4225H225.817C227.358 45.4225 228.613 44.8233 229.655 43.5933C230.571 42.5331 231.036 41.2582 231.036 39.806V19.8602C231.036 18.5536 230.003 17.4915 228.733 17.4915C227.463 17.4915 226.43 18.5536 226.43 19.8602V38.94C226.43 39.6679 226.203 40.2708 225.755 40.7319C225.272 41.2713 224.645 41.5494 223.893 41.5494H158.943V19.8602C158.943 18.5536 157.911 17.4915 156.641 17.4915ZM142.399 60.786C141.943 60.786 141.488 60.758 141.034 60.689C140.519 60.6087 139.78 60.4407 139.318 59.9087C138.759 59.2629 138.653 58.2382 139.067 57.471C139.446 56.7711 140.174 56.3828 140.718 56.1812C141.316 55.9573 141.844 55.8079 142.33 55.7202C149.79 54.3819 153.833 52.2671 153.833 44.939V19.8602C153.833 18.268 155.093 16.9726 156.641 16.9726C158.189 16.9726 159.448 18.268 159.448 19.8602V41.0305H223.893C224.505 41.0305 224.997 40.8158 225.39 40.3735C225.753 40.0002 225.926 39.5335 225.926 38.94V19.8602C225.926 18.268 227.185 16.9726 228.733 16.9726C230.281 16.9726 231.54 18.268 231.54 19.8602V39.806C231.54 41.3889 231.034 42.7795 230.034 43.9367C228.909 45.2657 227.49 45.9395 225.817 45.9395H159.441C159.266 51.0296 157.434 54.9027 153.991 57.4561C151.706 59.1938 148.83 60.2354 145.44 60.5527C145.204 60.5751 144.969 60.5994 144.733 60.6236C143.967 60.7039 143.185 60.786 142.399 60.786Z" fill="#5660FF"/>
<path d="M258.947 34.4247C258.947 38.2157 255.958 41.2898 252.273 41.2898C249.787 41.2898 247.763 40.3827 246.201 38.5684C244.636 36.7541 243.856 34.3836 243.856 31.4569C243.856 28.1587 244.627 25.581 246.17 23.7257C247.712 21.8703 249.828 20.9426 252.514 20.9426C254.438 20.9426 255.98 21.5399 257.143 22.7364C258.346 23.9739 258.947 25.6426 258.947 27.7462V34.4247ZM349.74 19.8601V38.9399C349.74 40.2371 348.718 41.2898 347.455 41.2898H336.752C336.874 40.8363 336.934 40.3416 336.934 39.8059V20.1344C336.934 18.6823 335.789 17.5063 334.377 17.5063C332.967 17.5063 331.822 18.6823 331.822 20.1344V38.9399C331.822 40.2371 330.798 41.2898 329.537 41.2898H318.896C318.975 40.8363 319.015 40.3416 319.015 39.8059V20.3192C319.015 18.867 317.87 17.6911 316.46 17.6911C315.048 17.6911 313.903 18.867 313.903 20.3192V38.9399C313.903 40.2371 312.882 41.2898 311.621 41.2898H298.09H297.669H287.387H286.966H276.686H276.263H266.043H265.562H264.117V27.7462C264.117 23.8713 262.856 20.9221 260.33 18.9006C258.245 17.2935 255.641 16.4891 252.514 16.4891C248.505 16.4891 245.277 17.6855 242.833 20.0766C240.107 22.6748 238.744 26.3034 238.744 30.9623C238.744 35.0444 239.768 38.3836 241.811 40.98C244.255 44.1139 247.763 45.68 252.333 45.68H258.947C259.014 45.68 258.72 47.9982 258.679 48.2166C258.53 48.9781 258.314 49.7266 258.011 50.4378C257.454 51.7518 256.595 52.9072 255.487 53.777C253.886 55.0314 251.932 55.6361 249.955 55.8788C247.856 56.1345 245.798 55.875 243.702 55.9236C242.619 55.9497 241.548 56.6683 242.011 57.9189C242.628 59.5895 244.885 60.3342 246.46 60.3753C247.003 60.3902 247.554 60.3995 248.124 60.3995C249.928 60.3995 251.65 60.1942 253.296 59.7817C256.182 59.0799 258.526 57.7808 260.33 55.8862C262.695 53.4112 263.958 50.0103 264.117 45.68H265.562H266.043H276.263H276.686H286.966H287.387H297.669H298.09H313.604C315.288 45.68 316.689 44.9595 317.812 43.5166H317.994L318.847 44.448C319.569 45.2357 320.572 45.68 321.623 45.68H331.522C333.205 45.68 334.607 44.9595 335.731 43.5166H335.91L336.959 44.6944C337.516 45.3235 338.307 45.68 339.135 45.68H349.439C350.979 45.68 352.293 45.0584 353.379 43.8134C354.36 42.6898 354.852 41.1891 354.852 39.679V19.8601C354.852 18.4079 353.707 17.232 352.295 17.232C350.885 17.232 349.74 18.4079 349.74 19.8601Z" fill="#5660FF"/>
<path d="M252.514 21.2018C249.917 21.2018 247.847 22.1071 246.362 23.8934C244.867 25.6927 244.108 28.2368 244.108 31.4566C244.108 34.3049 244.876 36.64 246.389 38.3964C247.894 40.1435 249.875 41.0301 252.273 41.0301C255.815 41.0301 258.695 38.0679 258.695 34.4244V27.7459C258.695 25.7244 258.114 24.1005 256.965 22.919C255.857 21.7804 254.36 21.2018 252.514 21.2018ZM252.273 41.549C249.723 41.549 247.618 40.6045 246.012 38.7399C244.413 36.8864 243.604 34.4356 243.604 31.4566C243.604 28.1099 244.402 25.4519 245.979 23.5574C247.564 21.6498 249.763 20.6829 252.514 20.6829C254.497 20.6829 256.116 21.3119 257.323 22.5532C258.568 23.8336 259.199 25.5807 259.199 27.7459V34.4244C259.199 38.3535 256.093 41.549 252.273 41.549ZM244.263 56.1771C244.077 56.1771 243.892 56.179 243.709 56.1846C243.101 56.1976 242.551 56.4496 242.305 56.8267C242.123 57.1029 242.103 57.4408 242.246 57.8271C242.842 59.4398 245.097 60.0801 246.467 60.1155C247.006 60.1305 247.556 60.1398 248.124 60.1398C249.897 60.1398 251.618 59.9345 253.236 59.5294C256.064 58.8425 258.39 57.5546 260.15 55.703C262.459 53.2896 263.709 49.913 263.865 45.6703L263.874 45.4221H313.604C315.223 45.4221 316.535 44.7445 317.616 43.354L317.691 43.2569H318.103L319.032 44.2704C319.701 45.0021 320.647 45.4221 321.623 45.4221H331.522C333.141 45.4221 334.453 44.7445 335.535 43.354L335.609 43.2569H336.023L337.144 44.5187C337.654 45.0936 338.38 45.4221 339.135 45.4221H349.441C350.9 45.4221 352.161 44.8229 353.192 43.6414C354.099 42.5999 354.6 41.1925 354.6 39.6787V19.8597C354.6 18.5532 353.565 17.4911 352.295 17.4911C351.027 17.4911 349.994 18.5532 349.994 19.8597V38.9396C349.994 40.3787 348.854 41.549 347.455 41.549H336.424L336.511 41.2205C336.623 40.7912 336.681 40.3152 336.681 39.8057V20.1341C336.681 18.8275 335.647 17.7655 334.377 17.7655C333.106 17.7655 332.074 18.8275 332.074 20.1341V38.9396C332.074 40.3787 330.936 41.549 329.537 41.549H318.593L318.647 41.2429C318.725 40.8061 318.763 40.3227 318.763 39.8057V20.3189C318.763 19.0123 317.731 17.9503 316.46 17.9503C315.19 17.9503 314.156 19.0123 314.156 20.3189V38.9396C314.156 40.3787 313.018 41.549 311.62 41.549H263.865V27.7459C263.865 23.9717 262.624 21.0655 260.176 19.1057C258.149 17.5434 255.57 16.7482 252.514 16.7482C248.591 16.7482 245.393 17.9316 243.007 20.2648C240.345 22.8014 238.998 26.3983 238.998 30.962C238.998 34.9638 240.009 38.2788 242.007 40.8173C244.391 43.8729 247.865 45.4221 252.333 45.4221H259.067L259.145 45.5191C259.328 45.7487 258.931 48.2443 258.925 48.2686C258.766 49.0824 258.537 49.8477 258.241 50.542C257.659 51.9158 256.759 53.1048 255.639 53.9821C254.174 55.1319 252.273 55.8561 249.986 56.1361C248.651 56.2984 247.32 56.2555 246.032 56.2144C245.453 56.1958 244.856 56.1771 244.263 56.1771ZM248.124 60.6587C247.553 60.6587 246.999 60.6494 246.455 60.6344C244.649 60.5859 242.415 59.7441 241.775 58.0119C241.521 57.3213 241.695 56.8285 241.885 56.5355C242.226 56.0166 242.922 55.6825 243.696 55.6657C244.488 55.647 245.281 55.6732 246.048 55.6974C247.319 55.7366 248.629 55.7795 249.926 55.6209C252.122 55.3521 253.94 54.6615 255.332 53.5714C256.385 52.7464 257.23 51.6265 257.78 50.3348C258.062 49.6741 258.279 48.9443 258.43 48.1659C258.468 47.9774 258.651 46.5121 258.695 45.9391H252.333C247.705 45.9391 244.099 44.3264 241.615 41.1421C239.544 38.5121 238.494 35.0852 238.494 30.962C238.494 26.2489 239.896 22.5233 242.662 19.8859C245.143 17.4612 248.458 16.2312 252.514 16.2312C255.681 16.2312 258.361 17.0599 260.482 18.6932C263.063 20.7594 264.369 23.8038 264.369 27.7459V41.0301H311.62C312.74 41.0301 313.653 40.0931 313.653 38.9396V20.3189C313.653 18.7268 314.912 17.4314 316.46 17.4314C318.008 17.4314 319.268 18.7268 319.268 20.3189V39.8057C319.268 40.2368 319.242 40.6475 319.19 41.0301H329.537C330.658 41.0301 331.569 40.0931 331.569 38.9396V20.1341C331.569 18.542 332.829 17.2466 334.377 17.2466C335.927 17.2466 337.186 18.542 337.186 20.1341V39.8057C337.186 40.2368 337.148 40.6475 337.072 41.0301H347.455C348.577 41.0301 349.49 40.0931 349.49 38.9396V19.8597C349.49 18.2676 350.747 16.9722 352.295 16.9722C353.843 16.9722 355.102 18.2676 355.102 19.8597V39.6787C355.102 41.3213 354.558 42.8519 353.567 43.9867C352.437 45.2821 351.048 45.9391 349.441 45.9391H339.135C338.238 45.9391 337.378 45.549 336.772 44.8696L335.827 43.8057C334.676 45.2224 333.228 45.9391 331.522 45.9391H321.623C320.509 45.9391 319.429 45.4613 318.663 44.6251L317.91 43.8038C316.758 45.2205 315.31 45.9391 313.604 45.9391H264.359C264.157 50.2004 262.863 53.605 260.51 56.067C258.682 57.9895 256.274 59.3241 253.354 60.0334C251.697 60.4496 249.937 60.6587 248.124 60.6587Z" fill="#5660FF"/>
<path d="M31.6352 21.5412C31.8221 21.474 32.0054 21.3602 32.1814 21.1884C33.3283 20.0592 34.5042 18.9859 35.7491 17.9742C38.0338 16.2925 40.4873 14.9448 43.0514 13.7745C45.6465 12.7703 48.3141 12.1096 51.047 11.6616C51.5751 11.5981 52.0995 11.5795 52.624 11.5571C51.8654 11.9005 51.1341 12.3373 50.4862 12.942C47.2597 15.949 47.022 21.0727 49.9527 24.3821C52.8835 27.6933 57.8739 27.9397 61.1004 24.9309C64.3269 21.9238 64.5665 16.8002 61.6357 13.4908C60.9498 12.7162 60.1459 12.1264 59.2839 11.6896C59.3746 11.6915 59.4635 11.6971 59.5543 11.6971C62.2999 12.1226 64.9512 12.8842 67.5389 13.9089C70.143 15.1072 72.4187 16.5669 74.7905 18.1646C74.7941 18.1665 74.7941 18.1702 74.7977 18.1721C77.5561 20.3466 80.0676 23.9976 84.0345 22.5977C86.8782 21.5935 88.339 18.1236 87.4335 15.2528C86.0906 10.9934 79.7591 7.50106 76.2785 5.54492C71.1629 2.66858 65.501 0.891624 59.7067 0.253265C47.8186 -1.05332 35.76 2.7339 26.6792 10.719C23.9282 13.138 21.2914 16.3223 23.5562 20.0461C25.4307 23.1259 28.8768 23.264 31.6352 21.5412Z" fill="#5660FF"/>
<path d="M100.147 27.3837C97.7902 24.5596 94.6871 21.855 91.0577 24.1789C88.058 26.1014 87.9237 29.6385 89.6023 32.4701C89.6676 32.6604 89.7783 32.8508 89.9471 33.03C91.045 34.2078 92.0921 35.4136 93.0774 36.6922C94.7161 39.0366 96.0281 41.5545 97.1696 44.1864C98.1477 46.8499 98.7919 49.5863 99.2293 52.3917C99.2891 52.9349 99.3091 53.4724 99.3309 54.01C98.9952 53.2316 98.5705 52.4813 97.9807 51.8168C95.05 48.5056 90.0596 48.261 86.8331 51.268C83.6065 54.2769 83.367 59.3987 86.2995 62.71C89.2303 66.0212 94.2207 66.2657 97.4472 63.2587C98.2003 62.555 98.7756 61.7282 99.202 60.8453C99.2002 60.9386 99.1948 61.0301 99.1948 61.1234C98.7792 63.94 98.037 66.6614 97.0389 69.3175C95.8703 71.9904 94.4493 74.3255 92.8923 76.7594C92.8887 76.7613 92.8869 76.7632 92.8851 76.7669C90.7655 79.5985 87.2069 82.1743 88.5734 86.2452C89.5515 89.1645 92.9323 90.6633 95.7287 89.7338C99.8789 88.3563 103.283 81.8588 105.189 78.2863C107.991 73.0357 109.724 67.227 110.344 61.2802C111.618 49.0786 107.927 36.7015 100.147 27.3837Z" fill="#5660FF"/>
<path d="M78.9545 91.9607C78.7694 92.0279 78.5843 92.1418 78.41 92.3135C77.2613 93.4409 76.0872 94.516 74.8424 95.5277C72.5558 97.2094 70.1024 98.5571 67.5382 99.7255C64.945 100.732 62.2774 101.392 59.5445 101.84C59.0146 101.904 58.4901 101.922 57.9657 101.945C58.726 101.601 59.4555 101.165 60.1034 100.56C63.3299 97.5529 63.5695 92.4292 60.6387 89.1179C57.708 85.8086 52.7158 85.5622 49.4892 88.571C46.2645 91.5781 46.025 96.6999 48.9557 100.011C49.6398 100.786 50.4456 101.376 51.3076 101.812C51.215 101.81 51.1261 101.805 51.0353 101.805C48.2915 101.379 45.6384 100.616 43.0507 99.593C40.4466 98.3947 38.1728 96.935 35.7992 95.3373C35.7992 95.3373 35.7955 95.3317 35.7919 95.3298C33.0336 93.1553 30.522 89.5025 26.5569 90.9042C23.7115 91.9084 22.2524 95.3783 23.1562 98.2491C24.499 102.509 30.8305 106.001 34.3111 107.957C39.4267 110.833 45.0886 112.61 50.8829 113.247C62.7728 114.555 74.8315 110.766 83.9122 102.783C86.6615 100.364 89.2982 97.1796 87.0335 93.4539C85.1607 90.3741 81.7128 90.2379 78.9545 91.9607Z" fill="#5660FF"/>
<path d="M20.6448 80.4696C19.5469 79.2918 18.4998 78.086 17.5144 76.8074C15.8757 74.4631 14.5619 71.9451 13.4223 69.3133C12.4423 66.6516 11.7981 63.9133 11.3626 61.1079C11.3009 60.5648 11.2827 60.0272 11.261 59.4896C11.5949 60.268 12.0213 61.0183 12.6093 61.6828C15.54 64.9941 20.5322 65.2386 23.7588 62.2316C26.9835 59.2227 27.223 54.1009 24.2923 50.7897C21.3616 47.4784 16.3711 47.2339 13.1446 50.2409C12.3897 50.9446 11.8144 51.7696 11.3898 52.6543C11.3916 52.561 11.3971 52.4696 11.3971 52.3744C11.8108 49.5596 12.5548 46.8382 13.5511 44.1821C14.7198 41.5092 16.1425 39.1742 17.6995 36.7402C17.6995 36.7402 17.7031 36.7364 17.7049 36.7327C19.8263 33.9012 23.3831 31.3235 22.0185 27.2544C21.0404 24.3351 17.6596 22.8363 14.8613 23.7658C10.7111 25.1433 7.30855 31.6408 5.4013 35.2133C2.59941 40.4639 0.868189 46.2726 0.247563 52.2194C-1.02817 64.421 2.66474 76.7981 10.4443 86.1159C12.7998 88.94 15.9029 91.6446 19.5323 89.3208C22.5338 87.3982 22.6681 83.8592 20.9895 81.0277C20.9242 80.8373 20.8117 80.6488 20.6448 80.4696Z" fill="#5660FF"/>
<path d="M39.8115 56.5255C39.8115 65.1639 46.6584 72.1914 55.0749 72.1914C63.4915 72.1914 70.3402 65.1639 70.3402 56.5255C70.3402 47.8871 63.4915 40.8596 55.0749 40.8596C46.6584 40.8596 39.8115 47.8871 39.8115 56.5255Z" fill="#5660FF"/>
</svg>
